<svg width="128" height="128" viewBox="0 0 128 128" fill="none" xmlns="http://www.w3.org/2000/svg">
<rect width="128" height="128" rx="64" fill="#CDE2D1"/>
<path d="M50.808 34.432C46.264 36.16 42.744 38.848 40.248 42.496C37.752 46.08 36.504 50.496 36.504 55.744C36.504 58.112 36.728 59.776 37.176 60.736C37.624 61.632 37.848 62.144 37.848 62.272C34.392 62.272 31.8 61.568 30.072 60.16C28.408 58.688 27.576 56.288 27.576 52.96C27.576 48.864 29.24 44.896 32.568 41.056C35.96 37.152 40.28 34.016 45.528 31.648C50.776 29.216 56.024 28 61.272 28C62.168 28 63.448 28.064 65.112 28.192L65.976 87.232L86.136 28.48H92.856L66.168 100H52.344L50.808 34.432Z" fill="black"/>
</svg>
